<svg width="30" height="30" viewBox="0 0 30 30" fill="none" xmlns="http://www.w3.org/2000/svg">
<circle cx="15" cy="15" r="15" fill="#1A74E4"/>
<path d="M22.834 14.9787C22.8522 10.8387 19.5071 7.46395 15.3671 7.44568C11.2272 7.42742 7.85237 10.7726 7.8341 14.9125C7.81809 18.5425 10.3847 21.5763 13.8016 22.2889L13.8241 17.189L12.3241 17.1824L12.3341 14.9324L13.834 14.939L13.8423 13.064C13.8487 11.6165 15.0314 10.4442 16.4789 10.4506L18.3539 10.4589L18.3439 12.7089L16.8439 12.7022C16.4314 12.7004 16.0925 13.0364 16.0906 13.4489L16.084 14.9489L18.334 14.9588L18.3241 17.2088L16.0741 17.1989L16.0511 22.4113C19.8402 22.0531 22.8168 18.8712 22.834 14.9787Z" fill="white"/>
</svg>
